PathFileType	4	(X/Y/Z)	./resultDataOpenSim/trcMotMarkerGrf/sub10/qtm-01-05.trc
DataRate	CameraRate	NumFrames	NumMarkers	Units	OrigDataRate	OrigDataStartFrame	OrigNumFrames
250.000000	250.000000	14	24	m	250.000000	183	487
Frame#	Time	L.Toe.Tip			R.Toe.Tip			L.Ankle.Lat			R.Ankle.Lat			L.Ankle.Med			R.Ankle.Med			L.Heel			R.Heel			L.Knee.Lat			R.Knee.Lat			L.Knee.Med			R.Knee.Med			L.Thigh.Upper			R.Thigh.Upper			L.ASIS			R.ASIS			V.Sacral			L.Acromium			R.Acromium			C7			L.Elbow			R.Elbow			L.Wrist.Lat			R.Wrist.Lat
		X1	Y1	Z1	X2	Y2	Z2	X3	Y3	Z3	X4	Y4	Z4	X5	Y5	Z5	X6	Y6	Z6	X7	Y7	Z7	X8	Y8	Z8	X9	Y9	Z9	X10	Y10	Z10	X11	Y11	Z11	X12	Y12	Z12	X13	Y13	Z13	X14	Y14	Z14	X15	Y15	Z15	X16	Y16	Z16	X17	Y17	Z17	X18	Y18	Z18	X19	Y19	Z19	X20	Y20	Z20	X21	Y21	Z21	X22	Y22	Z22	X23	Y23	Z23	X24	Y24	Z24

183	0.728	0.01438904	0.043175465	-0.10837348	-0.70872611	0.040147138	-0.0047089893	-0.11748654	0.066596965	-0.15350214	-0.74808325	0.17521583	0.031911937	-0.12197776	0.087142537	-0.069237225	-0.70212395	0.16189914	-0.042010197	-0.18552213	0.035640522	-0.12029122	-0.78370381	0.20151418	-0.025174709	-0.10990687	0.45626759	-0.17633078	-0.44132303	0.41756342	0.069550915	-0.11666181	0.43502882	-0.055519308	-0.39084851	0.3944257	-0.047624764	-0.23006642	0.82485758	-0.25018156	-0.37352997	0.80578246	0.11031773	-0.21492479	0.93280852	-0.16776484	-0.27498337	0.90012777	0.066690075	-0.44651541	0.9189186	-0.10121832	-0.33758148	1.3808994	-0.2215121	-0.34427911	1.3723797	0.10480177	-0.43001737	1.4029664	-0.063785572	-0.45821785	1.0599412	-0.24430036	-0.32214161	1.0179875	0.16845693	-0.40047887	0.83001472	-0.30145934	-0.085136003	0.93206721	0.15827704
184	0.732	0.014476224	0.043011363	-0.10823752	-0.7048131	0.042169498	-0.0048380969	-0.11729221	0.066511539	-0.15347654	-0.73838322	0.17884507	0.032439853	-0.12199242	0.087045417	-0.069282573	-0.69239675	0.164082	-0.041503093	-0.18550635	0.035636852	-0.12035594	-0.77250061	0.20738287	-0.024347176	-0.1065403	0.45603344	-0.17636382	-0.43055321	0.41719759	0.070371439	-0.11432329	0.43433499	-0.055701387	-0.37788578	0.39221249	-0.046091882	-0.22369797	0.82609699	-0.25112869	-0.36583021	0.80553657	0.10959555	-0.20860149	0.93370995	-0.16830991	-0.26786412	0.90061896	0.065670945	-0.44039079	0.91970571	-0.10195996	-0.33136927	1.3820547	-0.22181676	-0.33833064	1.3732942	0.10439563	-0.42406156	1.4036471	-0.064145414	-0.45015221	1.0605575	-0.24503065	-0.31736183	1.018715	0.16712786	-0.39239638	0.83088301	-0.3019741	-0.080790397	0.93175626	0.15791735
185	0.736	0.014557019	0.04287044	-0.10814066	-0.700317	0.044523439	-0.0049171669	-0.11712034	0.0664449	-0.15346526	-0.72836042	0.18246243	0.032902806	-0.1219808	0.087000351	-0.069325111	-0.68254131	0.16642407	-0.041144491	-0.18552035	0.035653093	-0.12037059	-0.76091583	0.21312886	-0.023450621	-0.10324046	0.45577913	-0.17648681	-0.41980411	0.41687016	0.071186059	-0.11206055	0.43368684	-0.055977652	-0.36493281	0.39019963	-0.044651278	-0.21744918	0.82731681	-0.25206913	-0.35821334	0.80533616	0.10892079	-0.20230481	0.93451451	-0.16883019	-0.26082489	0.90113823	0.06470939	-0.43426611	0.92049727	-0.1026926	-0.32509894	1.3832158	-0.22212815	-0.33243312	1.3741969	0.10400762	-0.41809675	1.4043744	-0.064504611	-0.44272572	1.0612732	-0.24575155	-0.31255721	1.019425	0.16557857	-0.38423212	0.83176508	-0.30247938	-0.076505996	0.93140141	0.15759926
186	0.74	0.014644698	0.042744684	-0.10810049	-0.69509762	0.047168461	-0.004824842	-0.1169852	0.066378056	-0.15348384	-0.71808397	0.18605161	0.033247724	-0.12190204	0.08701113	-0.069374702	-0.67264429	0.16900697	-0.040955349	-0.18557925	0.035706116	-0.12032177	-0.749163	0.21856128	-0.022682101	-0.10003239	0.45550027	-0.17670742	-0.40908635	0.41660309	0.071971772	-0.10987	0.43312042	-0.056350066	-0.35198017	0.38853652	-0.043360808	-0.21131928	0.8284921	-0.2529739	-0.35066884	0.8052077	0.10832092	-0.1960557	0.93522839	-0.1693259	-0.25386764	0.90169672	0.063812223	-0.42813982	0.92128857	-0.10342711	-0.3187866	1.3843876	-0.22243106	-0.32657827	1.3750838	0.10364132	-0.41212026	1.4051619	-0.064861167	-0.43566208	1.0620543	-0.24698054	-0.30778174	1.0201001	0.16387241	-0.37598544	0.83266754	-0.30297363	-0.072279671	0.93099387	0.15732084
187	0.744	0.014735172	0.042634857	-0.10811005	-0.68892848	0.050095078	-0.0044580457	-0.11688456	0.066303794	-0.15353933	-0.70765356	0.18963862	0.033416754	-0.12176941	0.087070697	-0.069450981	-0.66276388	0.17190038	-0.040964454	-0.18567697	0.035791827	-0.1202339	-0.73750583	0.22350962	-0.022282922	-0.096946931	0.45521091	-0.17701992	-0.39840506	0.41641316	0.07271236	-0.1077386	0.43264839	-0.056801865	-0.33910728	0.38736242	-0.042271349	-0.20529535	0.82961312	-0.25381773	-0.34318943	0.80517486	0.10781642	-0.18984885	0.93586783	-0.16979166	-0.246999	0.90230577	0.06298972	-0.42201014	0.92207885	-0.10416541	-0.31247429	1.3855716	-0.22271134	-0.3207392	1.3759596	0.1033225	-0.4061356	1.4060132	-0.065221752	-0.42879005	1.0628849	-0.24879831	-0.30314878	1.0207148	0.16219871	-0.36766277	0.83359657	-0.30345671	-0.068118005	0.93053046	0.15708301
188	0.748	0.014819683	0.042544844	-0.10815399	-0.68158075	0.053247884	-0.003794792	-0.11680734	0.066225363	-0.15363126	-0.69716665	0.19328505	0.033346228	-0.12162304	0.087160569	-0.069559243	-0.65285945	0.17504718	-0.041148097	-0.18577768	0.035882638	-0.12015986	-0.72617173	0.22786494	-0.022418309	-0.093998728	0.45492594	-0.17740442	-0.38773341	0.41631214	0.07338919	-0.10566995	0.43226715	-0.057319232	-0.32643399	0.38675855	-0.041412972	-0.19936661	0.83067562	-0.25458487	-0.33578378	0.80525759	0.10742199	-0.18368127	0.93645168	-0.17022547	-0.24023263	0.90297531	0.062254332	-0.41587554	0.92286897	-0.10490587	-0.30617923	1.3867685	-0.22296663	-0.31489936	1.3768347	0.10307965	-0.40014612	1.4069275	-0.065633354	-0.42200239	1.0637425	-0.2507446	-0.2987046	1.0212702	0.16071498	-0.35927675	0.83455471	-0.30392353	-0.064032742	0.93001434	0.15688594
189	0.752	0.014894498	0.042472834	-0.10822375	-0.67293958	0.056488195	-0.0028803202	-0.11674471	0.066148619	-0.15375669	-0.68666038	0.19703279	0.03299754	-0.12149524	0.087260513	-0.069691281	-0.64278788	0.17824946	-0.041411345	-0.18584445	0.035950457	-0.1201429	-0.71525331	0.23159891	-0.023080894	-0.091165219	0.45465334	-0.17783637	-0.37702816	0.41631817	0.073993302	-0.10367455	0.43197477	-0.057895147	-0.31402569	0.38671851	-0.040764591	-0.19353527	0.83167028	-0.25526496	-0.32847528	0.80547264	0.10714703	-0.17757075	0.93699494	-0.1706337	-0.23357723	0.9037103	0.061610642	-0.40973967	0.92365934	-0.10564588	-0.2998898	1.3879792	-0.22320645	-0.30906493	1.3777187	0.10291864	-0.39415645	1.4079023	-0.066164139	-0.41515583	1.0645798	-0.25211467	-0.29437804	1.0218105	0.15944642	-0.35083946	0.83554239	-0.30436388	-0.060030485	0.929447	0.1567245
190	0.756	0.014961444	0.042411304	-0.1083169	-0.66304286	0.059646201	-0.0017740309	-0.11669066	0.066078061	-0.15391035	-0.67609215	0.2008241	0.032403684	-0.12139767	0.087354724	-0.069833775	-0.63240339	0.18130499	-0.041675663	-0.18586065	0.035982342	-0.1201975	-0.7046855	0.23474914	-0.024105211	-0.088403375	0.45439378	-0.17829886	-0.36625375	0.41646379	0.07453973	-0.10169108	0.43178123	-0.058490535	-0.30188554	0.3871544	-0.040281496	-0.18781107	0.83258315	-0.25584805	-0.32129149	0.80583428	0.10699196	-0.17152031	0.93750644	-0.17102113	-0.22701409	0.90451244	0.061047779	-0.40361935	0.92444845	-0.10638238	-0.29358999	1.3892006	-0.2234461	-0.3032495	1.3786184	0.10282634	-0.38816292	1.408934	-0.066812616	-0.40802103	1.0653312	-0.25253635	-0.29007481	1.0223853	0.15833728	-0.34234685	0.83656136	-0.30477693	-0.056116525	0.92882471	0.15659547
191	0.76	0.015022858	0.042353884	-0.10842824	-0.6520286	0.062603854	-0.00053149374	-0.11663954	0.066014027	-0.15408423	-0.66539437	0.20448698	0.031661963	-0.12133259	0.087432607	-0.069972314	-0.62166162	0.1841218	-0.041952364	-0.18582187	0.035975112	-0.12032195	-0.69431017	0.23738499	-0.025283636	-0.085692804	0.45414442	-0.17878525	-0.35537265	0.41678358	0.075042864	-0.099618925	0.4316959	-0.059047937	-0.28999088	0.3879418	-0.039931728	-0.18219762	0.83340481	-0.25633574	-0.31425462	0.80634932	0.10694195	-0.16551035	0.93799034	-0.17138689	-0.22050795	0.90538512	0.060549575	-0.39754543	0.92523224	-0.10711312	-0.2872616	1.3904238	-0.22369589	-0.2974725	1.3795368	0.10278922	-0.38214522	1.4100205	-0.067456363	-0.40039745	1.0659619	-0.25226801	-0.2857628	1.0230106	0.15732464	-0.33376433	0.83761503	-0.30518174	-0.052303529	0.92814489	0.15650537
192	0.764	0.015078883	0.042299638	-0.1085471	-0.64006447	0.065328054	0.0007838856	-0.11658625	0.065950751	-0.15426643	-0.65451486	0.20784054	0.03087269	-0.12129819	0.08749752	-0.070100928	-0.61061993	0.18670528	-0.042303601	-0.18573826	0.035937596	-0.12049702	-0.68396111	0.23957166	-0.026477748	-0.083051298	0.45390226	-0.1792925	-0.34432801	0.41730191	0.075464686	-0.097497383	0.43169862	-0.059585054	-0.27830555	0.38897121	-0.03969427	-0.17668908	0.83413788	-0.25674954	-0.30737633	0.80701037	0.10696805	-0.15952949	0.93845035	-0.17173058	-0.21405857	0.90633088	0.060119321	-0.39153346	0.92600695	-0.10784217	-0.28088576	1.3916442	-0.22395031	-0.29175643	1.3804711	0.10279965	-0.37608243	1.4111612	-0.06795593	-0.39231389	1.0665547	-0.25191908	-0.28145921	1.0236789	0.15636933	-0.32505392	0.83870052	-0.30559681	-0.048601926	0.92741133	0.15645886
193	0.768	0.015128509	0.042251304	-0.10866355	-0.62731647	0.067838293	0.0021094731	-0.11652714	0.065876849	-0.15443798	-0.64340793	0.21080493	0.030083942	-0.12127743	0.087571697	-0.070232117	-0.59935108	0.18910176	-0.042771802	-0.18564818	0.035900453	-0.12067488	-0.67351023	0.24135041	-0.027648705	-0.08050781	0.45366471	-0.17981392	-0.3330788	0.41804265	0.075738221	-0.095483382	0.43174351	-0.060183892	-0.26677481	0.39017147	-0.039546073	-0.17127923	0.83479223	-0.25711197	-0.30065955	0.80779671	0.10704138	-0.15358041	0.93889214	-0.17205331	-0.20772617	0.90734153	0.059789152	-0.38550248	0.92677882	-0.10858891	-0.27446803	1.3928661	-0.22418422	-0.28609328	1.3814175	0.10284583	-0.36997558	1.4123519	-0.068282153	-0.383964	1.06731	-0.25193406	-0.27718877	1.0243873	0.15546002	-0.31622515	0.8398091	-0.30601313	-0.045006095	0.92663215	0.15644652
194	0.772	0.015170395	0.042211191	-0.10877432	-0.61394852	0.07015301	0.0034143159	-0.11646034	0.065779898	-0.15457663	-0.63203755	0.21340623	0.029277256	-0.12123611	0.087679963	-0.070389378	-0.58785754	0.19136472	-0.043356077	-0.18560196	0.035903537	-0.12080271	-0.66287171	0.24274622	-0.028819955	-0.078076793	0.45342938	-0.18033921	-0.32166081	0.4190363	0.075875245	-0.093595897	0.43180365	-0.060850657	-0.25531679	0.3915075	-0.039452016	-0.16596714	0.83537306	-0.25742525	-0.29410742	0.80868145	0.10715062	-0.1476653	0.93932118	-0.17235404	-0.2015793	0.90839723	0.059592407	-0.37917545	0.92757936	-0.10938899	-0.26804526	1.3940956	-0.22436324	-0.28043717	1.3823763	0.10290869	-0.36384637	1.4135818	-0.06849657	-0.37550039	1.0683565	-0.25224189	-0.27296608	1.0251414	0.1545989	-0.30731576	0.8409477	-0.30641953	-0.041503002	0.92581429	0.15645556
195	0.776	0.015203273	0.042179026	-0.10888111	-0.60011191	0.07226764	0.0047137082	-0.11638836	0.06566013	-0.15467442	-0.62039731	0.21572273	0.028406118	-0.12114092	0.087829711	-0.070589309	-0.57607951	0.19351904	-0.0440216	-0.18562795	0.035970446	-0.12086042	-0.65199169	0.24378263	-0.030023442	-0.075762815	0.4531926	-0.18086201	-0.31014491	0.42028331	0.075966654	-0.091693785	0.43188565	-0.061500215	-0.243845	0.39296736	-0.03937016	-0.16075319	0.8358797	-0.25767761	-0.2877224	0.80963775	0.10730417	-0.14178077	0.93974237	-0.17262878	-0.19562543	0.90948209	0.059529744	-0.37213643	0.92846739	-0.11026072	-0.26164614	1.3953335	-0.22446668	-0.27475703	1.3833525	0.10297638	-0.35771745	1.4148402	-0.068661675	-0.36722907	1.0695225	-0.25244332	-0.2687938	1.0259444	0.15378569	-0.29831477	0.84215477	-0.30685986	-0.038088713	0.92495979	0.15648215
196	0.78	0.015227427	0.042152746	-0.10898593	-0.58590298	0.074174957	0.0060461086	-0.11632134	0.06554085	-0.15475019	-0.60851579	0.21781421	0.02745785	-0.12098518	0.088007266	-0.070827388	-0.5639886	0.19550392	-0.044718515	-0.18571621	0.036094751	-0.12086777	-0.64083829	0.24448031	-0.031267894	-0.073576545	0.45294732	-0.18138545	-0.29852502	0.42171514	0.076058686	-0.089690811	0.43199632	-0.062074403	-0.23232754	0.39454559	-0.039282159	-0.15563377	0.83631666	-0.25786186	-0.2814877	0.81064534	0.10749927	-0.13592376	0.94016401	-0.17287777	-0.18980982	0.91059761	0.05956955	-0.36427039	0.92948822	-0.11112457	-0.25526078	1.3965772	-0.22450364	-0.26906828	1.3843531	0.10305075	-0.35160191	1.4161183	-0.068808619	-0.35968279	1.0704454	-0.25243687	-0.26466957	1.0267921	0.15301428	-0.28915752	0.84348099	-0.3074269	-0.034769902	0.9240681	0.15652686
